<?xml version="1.0" encoding="utf-8"?>
<!-- Generator: Adobe Illustrator 23.0.0, SVG Export Plug-In . SVG Version: 6.00 Build 0)  -->
<svg version="1.1" id="Layer_1" xmlns="http://www.w3.org/2000/svg" xmlns:xlink="http://www.w3.org/1999/xlink" x="0px" y="0px"
	 viewBox="0 0 44 44" style="enable-background:new 0 0 44 44;" xml:space="preserve">
<style type="text/css">
	.st0{fill:#FF0039;}
	.st1{fill:#FFFFFF;}
</style>
<circle class="st0" cx="22" cy="22" r="22"/>
<path class="st1" d="M9,22.4c0,0.2,0.1,0.5,0.3,0.7l0.2,0.2l7.8,8.4c0.1,0.2,0.4,0.3,0.7,0.3s0.5-0.1,0.7-0.3l16-16.6
	c0.4-0.4,0.4-1,0-1.3l-1.4-1.4c-0.4-0.4-1-0.4-1.4,0h-0.1L18.4,26.3c-0.2,0.2-0.5,0.2-0.7,0l-5.5-5.9l-0.1-0.1c-0.4-0.4-1-0.4-1.4,0
	l-1.4,1.4C9.1,21.9,9,22.2,9,22.4z"/>
</svg>
