<?xml version="1.0" encoding="utf-8"?>
<!-- Generator: Adobe Illustrator 23.0.2, SVG Export Plug-In . SVG Version: 6.00 Build 0)  -->
<svg version="1.1" id="Layer_1" xmlns="http://www.w3.org/2000/svg" xmlns:xlink="http://www.w3.org/1999/xlink" x="0px" y="0px"
	 viewBox="0 0 512 512" style="enable-background:new 0 0 512 512;" xml:space="preserve">
<style type="text/css">
	.st0{fill:#4D515B;}
</style>
<path class="st0" d="M256.1,3C116.4,3,3.1,116.3,3.1,256s113.3,253,253,253s253-113.3,253-253S395.9,3,256.1,3z M256.1,488.8
	C127.8,488.8,23.3,384.4,23.3,256c0-128.3,104.4-232.8,232.8-232.8S488.9,127.7,488.9,256C488.9,384.4,384.4,488.8,256.1,488.8z"/>
<polygon class="st0" points="264,139 248.4,139 248.4,248.1 139.8,248.1 139.8,263.7 248.4,263.7 248.4,372.4 264,372.4 264,263.7 
	373.1,263.7 373.1,248.1 264,248.1 "/>
</svg>
