<?xml version="1.0" encoding="utf-8"?>
<!-- Generator: Adobe Illustrator 22.1.0, SVG Export Plug-In . SVG Version: 6.00 Build 0)  -->
<svg version="1.1" id="Layer_1" xmlns="http://www.w3.org/2000/svg" xmlns:xlink="http://www.w3.org/1999/xlink" x="0px" y="0px"
	 viewBox="0 0 512 512" style="enable-background:new 0 0 512 512;" xml:space="preserve">
<style type="text/css">
	.st0{fill:#4D515B;}
</style>
<g>
	<g>
		<g>
			<path class="st0" d="M373.3,277.3c-5.9,0-10.7,4.8-10.7,10.7v106.7c0,17.6-14.4,32-32,32h-96V98c0-18.5-11-35.1-27.9-42.3
				l-80.1-34.3h204.1c17.6,0,32,14.4,32,32V160c0,5.9,4.8,10.7,10.7,10.7S384,165.9,384,160V53.3C384,23.9,360.1,0,330.7,0h-256
				c-0.9,0-1.6,0.3-2.4,0.5C70.6,0.3,69,0,67.4,0C42,0,21.3,20.7,21.3,46.1V414c0,18.5,11,35.1,27.9,42.3l121.2,51.9
				c5.8,2.5,11.9,3.7,18.2,3.7c25.4,0,46.1-20.7,46.1-46.1V448h96c29.4,0,53.3-23.9,53.3-53.3V288
				C384,282.1,379.2,277.3,373.3,277.3z M213.3,465.9c0,13.6-11.1,24.7-24.7,24.7c-3.4,0-6.7-0.7-9.7-2L57.7,436.7
				c-9.1-3.9-15-12.8-15-22.7V46.1c0-13.6,11.1-24.7,24.7-24.7c3.4,0,6.7,0.7,9.7,2l121.2,51.9c9.1,3.9,15,12.8,15,22.7V465.9z"/>
			<path class="st0" d="M181.3,234.7c-5.9,0-10.7,4.8-10.7,10.7V288c0,5.9,4.8,10.7,10.7,10.7S192,293.9,192,288v-42.7
				C192,239.4,187.2,234.7,181.3,234.7z"/>
			<path class="st0" d="M490.1,221.2c-0.1-0.4-0.1-0.8-0.2-1.2c-0.6-1.4-1.4-2.6-2.5-3.6l-63.9-63.9c-4.2-4.2-10.9-4.2-15.1,0
				s-4.2,10.9,0,15.1l45.8,45.8H266.7c-5.9,0-10.7,4.8-10.7,10.7s4.8,10.7,10.7,10.7h187.6l-45.8,45.8c-4.2,4.2-4.2,10.9,0,15.1
				c2.1,2.1,4.8,3.1,7.6,3.1s5.5-1,7.5-3.1l64-64c0.3-0.3,0.4-0.7,0.7-1c0.6-0.8,1.3-1.6,1.6-2.5c0.4-0.9,0.5-1.9,0.6-2.9
				c0.1-0.4,0.3-0.8,0.3-1.2C490.7,223,490.3,222.1,490.1,221.2z"/>
		</g>
	</g>
</g>
</svg>
