<?xml version="1.0" encoding="utf-8"?>
<!-- Generator: Adobe Illustrator 22.1.0, SVG Export Plug-In . SVG Version: 6.00 Build 0)  -->
<svg version="1.1" id="Layer_1" xmlns="http://www.w3.org/2000/svg" xmlns:xlink="http://www.w3.org/1999/xlink" x="0px" y="0px"
	 viewBox="0 0 479.3 479.3" style="enable-background:new 0 0 479.3 479.3;" xml:space="preserve">
<style type="text/css">
	.st0{fill:none;}
	.st1{fill:#4D515B;}
</style>
<path class="st0" d="M384,74H42.7c-11.8,0-21.3,9.6-21.3,21.3v341.3c0,11.8,9.6,21.3,21.3,21.3H384c11.8,0,21.3-9.6,21.3-21.3V95.3
	C405.3,83.6,395.8,74,384,74z M298.7,330c0,12.4-13.5,21.3-32,21.3s-32-9-32-21.3s13.5-21.3,32-21.3c3.8,0,7.4,0.5,10.7,1.2v-84.6
	L170.7,243v108.3c0,12.4-13.5,21.3-32,21.3s-32-9-32-21.3s13.5-21.3,32-21.3c3.8,0,7.4,0.5,10.7,1.2V191.3c0-5.2,3.8-9.7,8.9-10.5
	l128-21.3c3.1-0.5,6.3,0.4,8.6,2.4c2.4,2,3.8,5,3.8,8.1V330z"/>
<polygon class="st0" points="170.7,221.4 277.3,203.6 277.3,203.6 277.3,182.6 170.7,200.4 "/>
<path class="st1" d="M384,52.7H42.7C19.1,52.7,0,71.8,0,95.3v341.3c0,23.5,19.1,42.7,42.7,42.7H384c23.5,0,42.7-19.1,42.7-42.7V95.3
	C426.7,71.8,407.5,52.7,384,52.7z M405.3,436.7c0,11.8-9.6,21.3-21.3,21.3H42.7c-11.8,0-21.3-9.6-21.3-21.3V95.3
	c0-11.8,9.6-21.3,21.3-21.3H384c11.8,0,21.3,9.6,21.3,21.3V436.7z"/>
<path class="st1" d="M436.7,0h-352C78.8,0,74,4.8,74,10.7s4.8,10.7,10.7,10.7h352c11.8,0,21.3,9.6,21.3,21.3v352
	c0,5.9,4.8,10.7,10.7,10.7s10.7-4.8,10.7-10.7v-352C479.3,19.1,460.2,0,436.7,0z"/>
<path class="st1" d="M294.9,161.9c-2.4-2-5.5-2.9-8.6-2.4l-128,21.3c-5.1,0.9-8.9,5.3-8.9,10.5v139.8c-3.3-0.7-6.8-1.2-10.7-1.2
	c-18.5,0-32,9-32,21.3s13.5,21.3,32,21.3s32-9,32-21.3V243l106.7-17.8v84.6c-3.3-0.7-6.8-1.2-10.7-1.2c-18.5,0-32,9-32,21.3
	s13.5,21.3,32,21.3s32-9,32-21.3V170C298.7,166.9,297.3,163.9,294.9,161.9z M277.3,203.6L277.3,203.6l-106.7,17.8v-21l106.7-17.8
	V203.6z"/>
</svg>
