<?xml version="1.0" encoding="utf-8"?>
<!-- Generator: Adobe Illustrator 23.0.0, SVG Export Plug-In . SVG Version: 6.00 Build 0)  -->
<svg version="1.1" id="Capa_1" xmlns="http://www.w3.org/2000/svg" xmlns:xlink="http://www.w3.org/1999/xlink" x="0px" y="0px"
	 viewBox="0 0 512 512" style="enable-background:new 0 0 512 512;" xml:space="preserve">
<style type="text/css">
	.st0{fill:none;}
	.st1{fill:#FFFFFF;}
	.st2{fill:none;stroke:#5774BE;stroke-width:26;stroke-linecap:round;stroke-linejoin:round;}
</style>
<path class="st0" d="M344.5,242.4l-128-80c-4.9-3.1-11.2-3.3-16.2-0.4c-5.1,2.8-8.2,8.2-8.2,14v160c0,5.8,3.2,11.2,8.2,14
	c2.4,1.3,5.1,2,7.8,2c2.9,0,5.9-0.8,8.5-2.4l128-80c4.7-2.9,7.5-8.1,7.5-13.6S349.2,245.4,344.5,242.4z"/>
<circle class="st1" cx="256" cy="256" r="235.4"/>
<path class="st2" d="M213.3,309.7c0,3.9,2.1,7.5,5.5,9.4c1.6,0.9,3.4,1.3,5.2,1.3c2,0,4-0.5,5.7-1.6l86-53.7c3.1-2,5.1-5.4,5.1-9.1
	s-1.9-7.1-5.1-9.1l-86-53.7c-3.3-2.1-7.5-2.2-10.9-0.3s-5.5,5.5-5.5,9.4L213.3,309.7L213.3,309.7z"/>
</svg>
