<?xml version="1.0" encoding="utf-8"?>
<!-- Generator: Adobe Illustrator 22.1.0, SVG Export Plug-In . SVG Version: 6.00 Build 0)  -->
<svg version="1.1" id="Capa_1" xmlns="http://www.w3.org/2000/svg" xmlns:xlink="http://www.w3.org/1999/xlink" x="0px" y="0px"
	 viewBox="0 0 469.3 469.3" style="enable-background:new 0 0 469.3 469.3;" xml:space="preserve">
<style type="text/css">
	.st0{fill:none;}
	.st1{fill:#4D515B;}
</style>
<path class="st0" d="M181.3,149.3c-37.5,0-68.4,27.9-73.6,64h147.2C249.7,177.2,218.8,149.3,181.3,149.3z"/>
<path class="st1" d="M466.2,451.1L316.7,301.6c28.5-32,46-74.1,46-120.3C362.7,81.3,281.3,0,181.3,0S0,81.3,0,181.3
	s81.3,181.3,181.3,181.3c46.2,0,88.2-17.5,120.3-46l149.5,149.5c2.1,2.1,4.8,3.1,7.5,3.1s5.5-1,7.5-3.1
	C470.4,462,470.4,455.3,466.2,451.1z M181.3,341.3c-88.2,0-160-71.8-160-160s71.8-160,160-160s160,71.8,160,160
	S269.6,341.3,181.3,341.3z"/>
</svg>
